#!OML:ASF H:\Punching\Project 1\Capture day 1\Session 1\female.ASF
:FULLY-SPECIFIED
:DEGREES
995
root 3.53691 14.8516 9.93125 17.5809 -5.9358 -4.40268
lowerback 1.47187 1.06227 4.96086
upperback -5.65179 1.73989 1.24079
thorax -6.6159 0.632074 -1.60253
lowerneck -3.3591 12.2576 19.9696
upperneck 20.6398 19.02 -18.0863
head 10.9389 9.10233 -7.36096
rclavicle -9.405e-015 -3.00165e-014
rhumerus 2.26348 45.3352 -82.0241
rradius 124.211
rwrist -9.98897
rhand -24.4998 6.41089
rfingers 7.12502
rthumb 1.99468 -23.5595
lclavicle -9.405e-015 -3.00165e-014
lhumerus -25.1757 -32.6486 56.3274
lradius 57.6906
lwrist 3.2723
lhand 3.9968 15.8212
lfingers 7.12502
lthumb 29.4126 43.5132
rfemur 6.34317 1.21255 10.0837
rtibia 1.90833e-014
rfoot -13.9447 -21.9487
rtoes -9.40404
lfemur -49.4 5.13239 -12.0203
ltibia 54.178
lfoot -16.0955 9.72206
ltoes -6.96323
996
root 3.54002 14.8548 9.93631 17.5857 -5.87038 -4.50202
lowerback 1.43897 0.978282 4.90648
upperback -5.63341 1.63425 1.46985
thorax -6.5917 0.590274 -1.32512
lowerneck -3.37832 12.2844 19.836
upperneck 20.6544 19.1142 -18.2409
head 10.9736 9.12394 -7.38177
rclavicle 3.65267e-015 -2.90226e-014
rhumerus 3.00416 45.8334 -81.6664
rradius 124.036
rwrist -9.91482
rhand -24.3773 6.40445
rfingers 7.12502
rthumb 2.11296 -23.5648
lclavicle 3.65267e-015 -2.90226e-014
lhumerus -25.1032 -32.2189 56.6933
lradius 57.7201
lwrist 1.63605
lhand 4.25548 15.3656
lfingers 7.12502
lthumb 29.6596 43.014
rfemur 6.40444 1.21265 10.112
rtibia -2.8625e-014
rfoot -13.8251 -21.6204
rtoes -9.85046
lfemur -49.4205 5.06604 -11.8911
ltibia 54.2345
lfoot -16.0423 9.73836
ltoes -7.11049
997
root 3.54105 14.8606 9.93827 17.5772 -5.84741 -4.58621
lowerback 1.43188 0.893623 4.84366
upperback -5.61807 1.52796 1.67899
thorax -6.58436 0.547495 -1.06443
lowerneck -3.36782 12.3107 19.7462
upperneck 20.5993 19.2011 -18.4144
head 10.9824 9.14656 -7.41748
rclavicle 2.73329e-015 1.07344e-014
rhumerus 3.68925 46.2809 -81.3834
rradius 123.833
rwrist -9.72727
rhand -24.2822 6.38905
rfingers 7.12502
rthumb 2.20481 -23.5793
lclavicle 2.73329e-015 1.07344e-014
lhumerus -24.9982 -31.8236 57.0782
lradius 57.7616
lwrist 0.194429
lhand 4.52728 14.9954
lfingers 7.12502
lthumb 29.919 42.5973
rfemur 6.45454 1.24958 10.1154
rtibia -3.18055e-015
rfoot -13.6577 -21.2598
rtoes -10.3159
lfemur -49.4036 5.0119 -11.7673
ltibia 54.2432
lfoot -15.9539 9.76676
ltoes -7.25138
998
root 3.53994 14.8687 9.93731 17.5553 -5.8651 -4.6483
lowerback 1.44299 0.817152 4.7808
upperback -5.60486 1.43184 1.85106
thorax -6.58739 0.508371 -0.843413
lowerneck -3.33466 12.3273 19.6931
upperneck 20.4828 19.2592 -18.5752
head 10.9602 9.16169 -7.45863
rclavicle 8.67198e-015 -7.95139e-016
rhumerus 4.28732 46.6628 -81.1843
rradius 123.638
rwrist -9.48757
rhand -24.2207 6.37816
rfingers 7.12502
rthumb 2.26425 -23.5896
lclavicle 8.67198e-015 -7.95139e-016
lhumerus -24.8432 -31.5527 57.4724
lradius 57.8318
lwrist -0.842662
lhand 4.78874 14.7619
lfingers 7.12502
lthumb 30.1684 42.3185
rfemur 6.49255 1.31944 10.0882
rtibia 1.90833e-014
rfoot -13.4401 -20.8734
rtoes -10.8007
lfemur -49.349 4.96176 -11.6532
ltibia 54.205
lfoot -15.832 9.80618
ltoes -7.37389
999
root 3.53667 14.8789 9.93373 17.5199 -5.9197 -4.6834
lowerback 1.46778 0.755786 4.72407
upperback -5.59689 1.35472 1.97432
thorax -6.601 0.476584 -0.678213
lowerneck -3.28482 12.3278 19.6756
upperneck 20.3292 19.2756 -18.6994
head 10.9109 9.16445 -7.49872
rclavicle -6.88292e-015 9.54166e-015
rhumerus 4.77043 46.9671 -81.0766
rradius 123.484
rwrist -9.27312
rhand -24.1797 6.36284
rfingers 7.12502
rthumb 2.30381 -23.6045
lclavicle -6.88292e-015 9.54166e-015
lhumerus -24.6512 -31.4685 57.8737
lradius 57.9451
lwrist -1.36548
lhand 4.99012 14.6787
lfingers 7.12502
lthumb 30.3605 42.2001
rfemur 6.51864 1.41717 10.0269
rtibia 2.22639e-014
rfoot -13.1937 -20.4653
rtoes -11.2477
lfemur -49.2577 4.90935 -11.5529
ltibia 54.1217
lfoot -15.6748 9.85822
ltoes -7.50472
1000
root 3.5311 14.891 9.92758 17.4697 -6.0093 -4.68859
lowerback 1.49977 0.709533 4.67329
upperback -5.58753 1.29561 2.04466
thorax -6.61461 0.451855 -0.572829
lowerneck -3.23743 12.3163 19.6876
upperneck 20.1565 19.2539 -18.774
head 10.8435 9.1553 -7.53051
rclavicle 8.67198e-015 -5.1684e-015
rhumerus 5.16331 47.1972 -81.041
rradius 123.383
rwrist -9.14896
rhand -24.154 6.34305
rfingers 7.12502
rthumb 2.32868 -23.624
lclavicle 8.67198e-015 -5.1684e-015
lhumerus -24.4354 -31.5712 58.264
lradius 58.1217
lwrist -1.34287
lhand 5.10464 14.745
lfingers 7.12502
lthumb 30.4698 42.2461
rfemur 6.53403 1.54029 9.93148
rtibia 1.27222e-014
rfoot -12.9234 -20.0413
rtoes -11.6364
lfemur -49.128 4.85384 -11.4693
ltibia 53.9928
lfoot -15.4831 9.92344
ltoes -7.64583
1001
root 3.5233 14.9044 9.91923 17.408 -6.12944 -4.67034
lowerback 1.53135 0.67445 4.6267
upperback -5.57848 1.24941 2.07496
thorax -6.62652 0.432136 -0.512417
lowerneck -3.18698 12.2939 19.713
upperneck 19.9821 19.2032 -18.8048
head 10.7644 9.13693 -7.55303
rclavicle -1.30204e-014 1.51076e-014
rhumerus 5.47874 47.3798 -81.0493
rradius 123.338
rwrist -9.15109
rhand -24.1387 6.33192
rfingers 7.12502
rthumb 2.34339 -23.635
lclavicle -1.30204e-014 1.51076e-014
lhumerus -24.2309 -31.8233 58.6445
lradius 58.3831
lwrist -0.808762
lhand 5.15757 14.9261
lfingers 7.12502
lthumb 30.5203 42.4179
rfemur 6.53563 1.68607 9.80976
rtibia -1.27222e-014
rfoot -12.6374 -19.6006
rtoes -11.9403
lfemur -48.964 4.79787 -11.3974
ltibia 53.8189
lfoot -15.2633 10.001
ltoes -7.79841
1002
root 3.51302 14.919 9.9085 17.3313 -6.28045 -4.62665
lowerback 1.57218 0.644185 4.57164
upperback -5.57008 1.20803 2.07297
thorax -6.64346 0.414193 -0.481403
lowerneck -3.14006 12.2703 19.7554
upperneck 19.818 19.1419 -18.8036
head 10.6855 9.11645 -7.56797
rclavicle 5.29264e-015 -9.14409e-015
rhumerus 5.73912 47.5377 -81.0866
rradius 123.342
rwrist -9.28301
rhand -24.1226 6.2835
rfingers 7.12502
rthumb 2.35894 -23.6832
lclavicle 5.29264e-015 -9.14409e-015
lhumerus -24.0707 -32.1794 59.0115
lradius 58.7595
lwrist 0.168407
lhand 5.13397 15.2269
lfingers 7.12502
lthumb 30.4977 42.7229
rfemur 6.52503 1.85478 9.66212
rtibia 1.90833e-014
rfoot -12.3372 -19.1445
rtoes -12.1538
lfemur -48.7592 4.74404 -11.34
ltibia 53.5961
lfoot -15.0215 10.0941
ltoes -7.95648
1003
root 3.50032 14.9346 9.89555 17.2439 -6.46071 -4.56231
lowerback 1.61693 0.61313 4.50614
upperback -5.56304 1.16415 2.05045
thorax -6.66379 0.394869 -0.46582
lowerneck -3.08745 12.2518 19.8121
upperneck 19.6655 19.0866 -18.7908
head 10.6116 9.10052 -7.58017
rclavicle -4.84538e-015 -3.37934e-014
rhumerus 5.96558 47.6894 -81.1367
rradius 123.379
rwrist -9.51859
rhand -24.096 6.18655
rfingers 7.12502
rthumb 2.38461 -23.7799
lclavicle -4.84538e-015 -3.37934e-014
lhumerus -23.9724 -32.6009 59.3666
lradius 59.2687
lwrist 1.4938
lhand 5.03726 15.6378
lfingers 7.12502
lthumb 30.4055 43.1509
rfemur 6.50253 2.04589 9.4944
rtibia -1.27222e-014
rfoot -12.0302 -18.671
rtoes -12.2696
lfemur -48.5162 4.69475 -11.2936
ltibia 53.3223
lfoot -14.766 10.2054
ltoes -8.1075
1004
root 3.48513 14.951 9.88036 17.1457 -6.66854 -4.47584
lowerback 1.66439 0.577583 4.424
upperback -5.55559 1.11264 2.01401
thorax -6.68534 0.372228 -0.454905
lowerneck -3.02959 12.2415 19.877
upperneck 19.5235 19.0461 -18.7805
head 10.5454 9.09181 -7.59249
rclavicle 2.78299e-015 -1.19271e-014
rhumerus 6.17636 47.8453 -81.1791
rradius 123.434
rwrist -9.81104
rhand -24.0481 6.05214
rfingers 7.12502
rthumb 2.4309 -23.9138
lclavicle 2.78299e-015 -1.19271e-014
lhumerus -23.9309 -33.0548 59.7042
lradius 59.914
lwrist 3.056
lhand 4.88689 16.1234
lfingers 7.12502
lthumb 30.2621 43.6629
rfemur 6.46845 2.2575 9.30603
rtibia 1.90833e-014
rfoot -11.7312 -18.1842
rtoes -12.3159
lfemur -48.2336 4.64952 -11.2599
ltibia 52.9953
lfoot -14.5019 10.335
ltoes -8.23003
1005
root 3.46771 14.9681 9.86369 17.0339 -6.90966 -4.36917
lowerback 1.71147 0.537933 4.32745
upperback -5.55281 1.05442 1.96903
thorax -6.71184 0.346638 -0.444296
lowerneck -2.939 12.2364 19.9489
upperneck 19.3873 19.0232 -18.7857
head 10.482 9.09254 -7.61083
rclavicle 8.24956e-015 -2.78299e-014
rhumerus 6.34996 48.0069 -81.2314
rradius 123.485
rwrist -10.1071
rhand -23.9597 5.90508
rfingers 7.12502
rthumb 2.51623 -24.0598
lclavicle 8.24956e-015 -2.78299e-014
lhumerus -23.9559 -33.527 60.0369
lradius 60.6778
lwrist 4.71617
lhand 4.70292 16.6313
lfingers 7.12502
lthumb 30.0866 44.2029
rfemur 6.42843 2.49636 9.09838
rtibia 9.54166e-015
rfoot -11.4674 -17.6981
rtoes -12.3403
lfemur -47.903 4.6064 -11.2374
ltibia 52.616
lfoot -14.2352 10.493
ltoes -8.33295
1006
root 3.44802 14.9857 9.84543 16.9125 -7.17603 -4.24314
lowerback 1.74658 0.495685 4.2237
upperback -5.54933 0.990816 1.91378
thorax -6.73062 0.318615 -0.439786
lowerneck -2.82333 12.236 20.0208
upperneck 19.249 19.0154 -18.8062
head 10.4186 9.10062 -7.63376
rclavicle 1.44864e-014 -5.76476e-015
rhumerus 6.50636 48.163 -81.2762
rradius 123.519
rwrist -10.3645
rhand -23.8378 5.74261
rfingers 7.12502
rthumb 2.63401 -24.2209
lclavicle 1.44864e-014 -5.76476e-015
lhumerus -24.0009 -34.0071 60.3489
lradius 61.5213
lwrist 6.31364
lhand 4.51669 17.1176
lfingers 7.12502
lthumb 29.9089 44.7213
rfemur 5.53326 2.7194 8.91015
rtibia 1.71168
rfoot -12.1602 -17.2536
rtoes -12.4272
lfemur -47.5326 4.55895 -11.2232
ltibia 52.1872
lfoot -13.9661 10.6776
ltoes -8.39899
1007
root 3.426 15.0037 9.826 16.7834 -7.46407 -4.09961
lowerback 1.76354 0.455005 4.11679
upperback -5.54807 0.927478 1.84903
thorax -6.74102 0.290732 -0.443225
lowerneck -2.67811 12.2332 20.0874
upperneck 19.1094 19.0132 -18.8402
head 10.3514 9.11187 -7.66192
rclavicle -8.02593e-015 -2.8625e-014
rhumerus 6.62369 48.2965 -81.3186
rradius 123.53
rwrist -10.547
rhand -23.6653 5.59295
rfingers 7.12502
rthumb 2.8006 -24.3684
lclavicle -8.02593e-015 -2.8625e-014
lhumerus -24.0497 -34.4757 60.6501
lradius 62.3931
lwrist 7.64613
lhand 4.34653 17.5116
lfingers 7.12502
lthumb 29.7465 45.1445
rfemur 3.90631 2.9299 8.72208
rtibia 4.88902
rfoot -13.6947 -16.884
rtoes -12.6069
lfemur -47.127 4.50525 -11.2153
ltibia 51.7154
lfoot -13.6952 10.8884
ltoes -8.43518
1008
root 3.40154 15.0221 9.80507 16.647 -7.76607 -3.93706
lowerback 1.76257 0.416797 4.00685
upperback -5.5473 0.865533 1.77247
thorax -6.74126 0.263514 -0.457216
lowerneck -2.51619 12.2277 20.1475
upperneck 18.9718 19.0127 -18.8801
head 10.2824 9.1241 -7.69221
rclavicle 1.8313e-014 -1.45113e-014
rhumerus 6.71533 48.3942 -81.3493
rradius 123.507
rwrist -10.6434
rhand -23.4596 5.46786
rfingers 7.12502
rthumb 2.99927 -24.4908
lclavicle 1.8313e-014 -1.45113e-014
lhumerus -24.0704 -34.9142 60.9352
lradius 63.2374
lwrist 8.55967
lhand 4.19975 17.7597
lfingers 7.12502
lthumb 29.6064 45.4176
rfemur 2.88297 3.17456 8.48765
rtibia 6.84834
rfoot -14.6496 -16.58
rtoes -12.9455
lfemur -46.6952 4.4396 -11.214
ltibia 51.207
lfoot -13.4163 11.1256
ltoes -8.45097
1009
root 3.37442 15.0402 9.78258 16.5059 -8.07275 -3.76736
lowerback 1.73926 0.384558 3.90596
upperback -5.54605 0.810299 1.68707
thorax -6.72757 0.239095 -0.485801
lowerneck -2.34341 12.2143 20.1979
upperneck 18.8386 19.005 -18.9224
head 10.2104 9.1328 -7.72425
rclavicle 2.37548e-014 4.37326e-014
rhumerus 6.78088 48.4427 -81.3566
rradius 123.452
rwrist -10.6658
rhand -23.2211 5.35429
rfingers 7.12502
rthumb 3.22958 -24.601
lclavicle 2.37548e-014 4.37326e-014
lhumerus -24.0366 -35.304 61.2069
lradius 64.0082
lwrist 8.94768
lhand 4.08798 17.8351
lfingers 7.12502
lthumb 29.4997 45.5118
rfemur 2.02554 3.42976 8.24589
rtibia 8.47477
rfoot -15.4747 -16.3656
rtoes -13.4276
lfemur -46.248 4.36831 -11.2084
ltibia 50.6719
lfoot -13.1263 11.3823
ltoes -8.48157
